<svg width="24" height="24" viewBox="0 0 24 24" fill="none" xmlns="http://www.w3.org/2000/svg">
<path d="M17.8102 1.94089C18.8102 1.94089 19.7802 2.33088 20.5502 3.08088C21.8002 4.30088 22.1002 6.10088 21.3202 7.66088L19.7002 10.9009C19.3602 11.5809 19.3602 12.4009 19.7002 13.0909L21.3202 16.3409C22.1002 17.9009 21.8002 19.7009 20.5502 20.9209C19.3002 22.1409 17.5002 22.4109 15.9502 21.5909L4.36022 15.4909C3.06022 14.8109 2.25022 13.4709 2.25022 12.0009C2.25022 10.5309 3.06022 9.19088 4.36022 8.51088L15.9502 2.41088C16.5502 2.09089 17.1802 1.94089 17.8102 1.94089ZM17.8002 20.5609C18.4902 20.5609 19.0902 20.2409 19.5002 19.8409C20.1202 19.2409 20.5602 18.1709 19.9802 17.0009L18.3602 13.7609C17.8102 12.6509 17.8102 11.3409 18.3602 10.2309L19.9802 6.99088C20.5702 5.82088 20.1202 4.75089 19.5002 4.15088C18.8802 3.55088 17.8102 3.12088 16.6502 3.73088L5.06022 9.83088C4.24022 10.2609 3.75022 11.0709 3.75022 11.9909C3.75022 12.9109 4.24022 13.7209 5.06022 14.1509L16.6502 20.2709C17.0502 20.4809 17.4402 20.5609 17.8002 20.5609Z" fill="#292D32"/>
</svg>
