<svg id="SvgjsSvg1792" width="829.5703125" height="650.25" xmlns="http://www.w3.org/2000/svg" version="1.1" xmlns:xlink="http://www.w3.org/1999/xlink" xmlns:svgjs="http://svgjs.com/svgjs"><defs id="SvgjsDefs1793"><marker id="SvgjsMarker1857" markerWidth="14" markerHeight="10" refX="10" refY="5" viewBox="0 0 14 10" orient="auto" markerUnits="userSpaceOnUse" stroke-dasharray="0,0"><path id="SvgjsPath1858" d="M0,0 L14,5 L0,10 L0,0" fill="#323232" stroke="#323232" stroke-width="1"></path></marker><marker id="SvgjsMarker1861" markerWidth="14" markerHeight="10" refX="10" refY="5" viewBox="0 0 14 10" orient="auto" markerUnits="userSpaceOnUse" stroke-dasharray="0,0"><path id="SvgjsPath1862" d="M0,0 L14,5 L0,10 L0,0" fill="#323232" stroke="#323232" stroke-width="1"></path></marker><marker id="SvgjsMarker1865" markerWidth="14" markerHeight="10" refX="10" refY="5" viewBox="0 0 14 10" orient="auto" markerUnits="userSpaceOnUse" stroke-dasharray="0,0"><path id="SvgjsPath1866" d="M0,0 L14,5 L0,10 L0,0" fill="#323232" stroke="#323232" stroke-width="1"></path></marker><marker id="SvgjsMarker1869" markerWidth="14" markerHeight="10" refX="10" refY="5" viewBox="0 0 14 10" orient="auto" markerUnits="userSpaceOnUse" stroke-dasharray="0,0"><path id="SvgjsPath1870" d="M0,0 L14,5 L0,10 L0,0" fill="#323232" stroke="#323232" stroke-width="1"></path></marker><marker id="SvgjsMarker1873" markerWidth="14" markerHeight="10" refX="10" refY="5" viewBox="0 0 14 10" orient="auto" markerUnits="userSpaceOnUse" stroke-dasharray="0,0"><path id="SvgjsPath1874" d="M0,0 L14,5 L0,10 L0,0" fill="#323232" stroke="#323232" stroke-width="1"></path></marker><marker id="SvgjsMarker1877" markerWidth="14" markerHeight="10" refX="10" refY="5" viewBox="0 0 14 10" orient="auto" markerUnits="userSpaceOnUse" stroke-dasharray="0,0"><path id="SvgjsPath1878" d="M0,0 L14,5 L0,10 L0,0" fill="#323232" stroke="#323232" stroke-width="1"></path></marker><marker id="SvgjsMarker1881" markerWidth="14" markerHeight="10" refX="10" refY="5" viewBox="0 0 14 10" orient="auto" markerUnits="userSpaceOnUse" stroke-dasharray="0,0"><path id="SvgjsPath1882" d="M0,0 L14,5 L0,10 L0,0" fill="#323232" stroke="#323232" stroke-width="1"></path></marker><marker id="SvgjsMarker1885" markerWidth="14" markerHeight="10" refX="10" refY="5" viewBox="0 0 14 10" orient="auto" markerUnits="userSpaceOnUse" stroke-dasharray="0,0"><path id="SvgjsPath1886" d="M0,0 L14,5 L0,10 L0,0" fill="#323232" stroke="#323232" stroke-width="1"></path></marker><marker id="SvgjsMarker1889" markerWidth="14" markerHeight="10" refX="10" refY="5" viewBox="0 0 14 10" orient="auto" markerUnits="userSpaceOnUse" stroke-dasharray="0,0"><path id="SvgjsPath1890" d="M0,0 L14,5 L0,10 L0,0" fill="#323232" stroke="#323232" stroke-width="1"></path></marker><marker id="SvgjsMarker1917" markerWidth="14" markerHeight="10" refX="10" refY="5" viewBox="0 0 14 10" orient="auto" markerUnits="userSpaceOnUse" stroke-dasharray="0,0"><path id="SvgjsPath1918" d="M0,0 L14,5 L0,10 L0,0" fill="#323232" stroke="#323232" stroke-width="1"></path></marker><marker id="SvgjsMarker1927" markerWidth="14" markerHeight="10" refX="10" refY="5" viewBox="0 0 14 10" orient="auto" markerUnits="userSpaceOnUse" stroke-dasharray="0,0"><path id="SvgjsPath1928" d="M0,0 L14,5 L0,10 L0,0" fill="#323232" stroke="#323232" stroke-width="1"></path></marker><marker id="SvgjsMarker1937" markerWidth="14" markerHeight="10" refX="10" refY="5" viewBox="0 0 14 10" orient="auto" markerUnits="userSpaceOnUse" stroke-dasharray="0,0"><path id="SvgjsPath1938" d="M0,0 L14,5 L0,10 L0,0" fill="#323232" stroke="#323232" stroke-width="1"></path></marker><marker id="SvgjsMarker1947" markerWidth="14" markerHeight="10" refX="10" refY="5" viewBox="0 0 14 10" orient="auto" markerUnits="userSpaceOnUse" stroke-dasharray="0,0"><path id="SvgjsPath1948" d="M0,0 L14,5 L0,10 L0,0" fill="#323232" stroke="#323232" stroke-width="1"></path></marker><marker id="SvgjsMarker1963" markerWidth="14" markerHeight="10" refX="10" refY="5" viewBox="0 0 14 10" orient="auto" markerUnits="userSpaceOnUse" stroke-dasharray="0,0"><path id="SvgjsPath1964" d="M0,0 L14,5 L0,10 L0,0" fill="#323232" stroke="#323232" stroke-width="1"></path></marker><marker id="SvgjsMarker1973" markerWidth="14" markerHeight="10" refX="10" refY="5" viewBox="0 0 14 10" orient="auto" markerUnits="userSpaceOnUse" stroke-dasharray="0,0"><path id="SvgjsPath1974" d="M0,0 L14,5 L0,10 L0,0" fill="#323232" stroke="#323232" stroke-width="1"></path></marker></defs><rect id="svgbackgroundid" width="829.5703125" height="650.25" fill="#ffffff"></rect><g id="SvgjsG1795" transform="translate(238.50508191747576,251.41666666666652)"><path id="SvgjsPath1796" d="M 0 0L 100 0L 100 70L 0 70Z" stroke="rgba(50,50,50,1)" stroke-width="2" fill-opacity="1" fill="#ffffff"></path><g id="SvgjsG1797"><text id="SvgjsText1798" font-family="微软雅黑" text-anchor="middle" font-size="13px" width="80px" fill="#323232" font-weight="400" align="middle" lineHeight="125%" anchor="middle" family="微软雅黑" size="13px" weight="400" font-style="" opacity="1" y="24.375" transform="rotate(0)"><tspan id="SvgjsTspan1799" dy="16" x="50"><tspan id="SvgjsTspan1800" style="text-decoration:;">题目</tspan></tspan></text></g></g><g id="SvgjsG1801" transform="translate(534.0050819174758,150.41666666666652)"><path id="SvgjsPath1802" d="M 0 0L 100 0L 100 70L 0 70Z" stroke="rgba(50,50,50,1)" stroke-width="2" fill-opacity="1" fill="#ffffff"></path><g id="SvgjsG1803"><text id="SvgjsText1804" font-family="微软雅黑" text-anchor="middle" font-size="13px" width="80px" fill="#323232" font-weight="400" align="middle" lineHeight="125%" anchor="middle" family="微软雅黑" size="13px" weight="400" font-style="" opacity="1" y="24.375" transform="rotate(0)"><tspan id="SvgjsTspan1805" dy="16" x="50"><tspan id="SvgjsTspan1806" style="text-decoration:;">选择题</tspan></tspan></text></g></g><g id="SvgjsG1807" transform="translate(540.0050819174758,386.4166666666665)"><path id="SvgjsPath1808" d="M 0 0L 100 0L 100 70L 0 70Z" stroke="rgba(50,50,50,1)" stroke-width="2" fill-opacity="1" fill="#ffffff"></path><g id="SvgjsG1809"><text id="SvgjsText1810" font-family="微软雅黑" text-anchor="middle" font-size="13px" width="80px" fill="#323232" font-weight="400" align="middle" lineHeight="125%" anchor="middle" family="微软雅黑" size="13px" weight="400" font-style="" opacity="1" y="24.375" transform="rotate(0)"><tspan id="SvgjsTspan1811" dy="16" x="50"><tspan id="SvgjsTspan1812" style="text-decoration:;">填空题</tspan></tspan></text></g></g><g id="SvgjsG1813" transform="translate(397.00508191747576,123)"><path id="SvgjsPath1814" d="M 0 35C 0 -11.666666666666666 100 -11.666666666666666 100 35C 100 81.66666666666667 0 81.66666666666667 0 35Z" stroke="rgba(50,50,50,1)" stroke-width="2" fill-opacity="1" fill="#ffffff"></path><g id="SvgjsG1815"><text id="SvgjsText1816" font-family="微软雅黑" text-anchor="middle" font-size="13px" width="80px" fill="#323232" font-weight="400" align="middle" lineHeight="125%" anchor="middle" family="微软雅黑" size="13px" weight="400" font-style="" opacity="1" y="24.375" transform="rotate(0)"><tspan id="SvgjsTspan1817" dy="16" x="50"><tspan id="SvgjsTspan1818" style="text-decoration:underline;">选择题编号</tspan></tspan></text></g></g><g id="SvgjsG1819" transform="translate(489.00508191747576,25)"><path id="SvgjsPath1820" d="M 0 35C 0 -11.666666666666666 100 -11.666666666666666 100 35C 100 81.66666666666667 0 81.66666666666667 0 35Z" stroke="rgba(50,50,50,1)" stroke-width="2" fill-opacity="1" fill="#ffffff"></path><g id="SvgjsG1821"><text id="SvgjsText1822" font-family="微软雅黑" text-anchor="middle" font-size="13px" width="80px" fill="#323232" font-weight="400" align="middle" lineHeight="125%" anchor="middle" family="微软雅黑" size="13px" weight="400" font-style="" opacity="1" y="24.375" transform="rotate(0)"><tspan id="SvgjsTspan1823" dy="16" x="50"><tspan id="SvgjsTspan1824" style="text-decoration:underline;">选项内容</tspan></tspan></text></g></g><g id="SvgjsG1825" transform="translate(654.0050819174758,25)"><path id="SvgjsPath1826" d="M 0 35C 0 -11.666666666666666 100 -11.666666666666666 100 35C 100 81.66666666666667 0 81.66666666666667 0 35Z" stroke="rgba(50,50,50,1)" stroke-width="2" fill-opacity="1" fill="#ffffff"></path><g id="SvgjsG1827"><text id="SvgjsText1828" font-family="微软雅黑" text-anchor="middle" font-size="13px" width="80px" fill="#323232" font-weight="400" align="middle" lineHeight="125%" anchor="middle" family="微软雅黑" size="13px" weight="400" font-style="" opacity="1" y="24.375" transform="rotate(0)"><tspan id="SvgjsTspan1829" dy="16" x="50"><tspan id="SvgjsTspan1830" style="text-decoration:underline;">是否答案</tspan></tspan></text></g></g><g id="SvgjsG1831" transform="translate(355.50508191747576,438.75)"><path id="SvgjsPath1832" d="M 0 35C 0 -11.666666666666666 100 -11.666666666666666 100 35C 100 81.66666666666667 0 81.66666666666667 0 35Z" stroke="rgba(50,50,50,1)" stroke-width="2" fill-opacity="1" fill="#ffffff"></path><g id="SvgjsG1833"><text id="SvgjsText1834" font-family="微软雅黑" text-anchor="middle" font-size="13px" width="80px" fill="#323232" font-weight="400" align="middle" lineHeight="125%" anchor="middle" family="微软雅黑" size="13px" weight="400" font-style="" opacity="1" y="24.375" transform="rotate(0)"><tspan id="SvgjsTspan1835" dy="16" x="50"><tspan id="SvgjsTspan1836" style="text-decoration:underline;">填空题编号</tspan></tspan></text></g></g><g id="SvgjsG1837" transform="translate(467.00508191747576,555.25)"><path id="SvgjsPath1838" d="M 0 35C 0 -11.666666666666666 100 -11.666666666666666 100 35C 100 81.66666666666667 0 81.66666666666667 0 35Z" stroke="rgba(50,50,50,1)" stroke-width="2" fill-opacity="1" fill="#ffffff"></path><g id="SvgjsG1839"><text id="SvgjsText1840" font-family="微软雅黑" text-anchor="middle" font-size="13px" width="80px" fill="#323232" font-weight="400" align="middle" lineHeight="125%" anchor="middle" family="微软雅黑" size="13px" weight="400" font-style="" opacity="1" y="24.375" transform="rotate(0)"><tspan id="SvgjsTspan1841" dy="16" x="50"><tspan id="SvgjsTspan1842" style="text-decoration:underline;">填空位置</tspan></tspan></text></g></g><g id="SvgjsG1843" transform="translate(704.5730430825242,427.4166666666665)"><path id="SvgjsPath1844" d="M 0 35C 0 -11.666666666666666 100 -11.666666666666666 100 35C 100 81.66666666666667 0 81.66666666666667 0 35Z" stroke="rgba(50,50,50,1)" stroke-width="2" fill-opacity="1" fill="#ffffff"></path><g id="SvgjsG1845"><text id="SvgjsText1846" font-family="微软雅黑" text-anchor="middle" font-size="13px" width="80px" fill="#323232" font-weight="400" align="middle" lineHeight="125%" anchor="middle" family="微软雅黑" size="13px" weight="400" font-style="" opacity="1" y="24.375" transform="rotate(0)"><tspan id="SvgjsTspan1847" dy="16" x="50"><tspan id="SvgjsTspan1848" style="text-decoration:underline;">该空分值</tspan></tspan></text></g></g><g id="SvgjsG1849" transform="translate(589.0050819174758,555.25)"><path id="SvgjsPath1850" d="M 0 35C 0 -11.666666666666666 100 -11.666666666666666 100 35C 100 81.66666666666667 0 81.66666666666667 0 35Z" stroke="rgba(50,50,50,1)" stroke-width="2" fill-opacity="1" fill="#ffffff"></path><g id="SvgjsG1851"><text id="SvgjsText1852" font-family="微软雅黑" text-anchor="middle" font-size="13px" width="80px" fill="#323232" font-weight="400" align="middle" lineHeight="125%" anchor="middle" family="微软雅黑" size="13px" weight="400" font-style="" opacity="1" y="24.375" transform="rotate(0)"><tspan id="SvgjsTspan1853" dy="16" x="50"><tspan id="SvgjsTspan1854" style="text-decoration:underline;">答案内容</tspan></tspan></text></g></g><g id="SvgjsG1855"><path id="SvgjsPath1856" d="M517.0050819174758 554.25L517.0050819174758 505.8333333333335L590.0050819174758 505.8333333333335L590.0050819174758 460.01666666666654" stroke="#323232" stroke-width="2" fill="none" marker-end="url(#SvgjsMarker1857)"></path></g><g id="SvgjsG1859"><path id="SvgjsPath1860" d="M639.0050819174758 554.25L639.0050819174758 505.8333333333335L590.0050819174758 505.8333333333335L590.0050819174758 460.01666666666654" stroke="#323232" stroke-width="2" fill="none" marker-end="url(#SvgjsMarker1861)"></path></g><g id="SvgjsG1863"><path id="SvgjsPath1864" d="M456.50508191747576 473.75L497.75508191747576 473.75L497.75508191747576 421.4166666666665L536.4050819174757 421.4166666666665" stroke="#323232" stroke-width="2" fill="none" marker-end="url(#SvgjsMarker1865)"></path></g><g id="SvgjsG1867"><path id="SvgjsPath1868" d="M703.5730430825242 462.4166666666665L672.2890625 462.4166666666665L672.2890625 421.4166666666665L643.6050819174758 421.4166666666665" stroke="#323232" stroke-width="2" fill="none" marker-end="url(#SvgjsMarker1869)"></path></g><g id="SvgjsG1871"><path id="SvgjsPath1872" d="M539.0050819174758 96L539.0050819174758 122.70833333333348L584.0050819174758 122.70833333333348L584.0050819174758 146.8166666666665" stroke="#323232" stroke-width="2" fill="none" marker-end="url(#SvgjsMarker1873)"></path></g><g id="SvgjsG1875"><path id="SvgjsPath1876" d="M704.0050819174758 96L704.0050819174758 122.70833333333348L616.0050819174758 122.70833333333348L616.0050819174758 146.8166666666665" stroke="#323232" stroke-width="2" fill="none" marker-end="url(#SvgjsMarker1877)"></path></g><g id="SvgjsG1879"><path id="SvgjsPath1880" d="M498.00508191747576 158L515.5050819174758 158L515.5050819174758 185.41666666666652L530.4050819174757 185.41666666666652" stroke="#323232" stroke-width="2" fill="none" marker-end="url(#SvgjsMarker1881)"></path></g><g id="SvgjsG1883"><path id="SvgjsPath1884" d="M580.0050819174758 386.4166666666665L580.0050819174758 302.4166666666665L341.6050819174758 302.4166666666665" stroke="#323232" stroke-width="2" fill="none" marker-end="url(#SvgjsMarker1885)"></path></g><g id="SvgjsG1887"><path id="SvgjsPath1888" d="M584.0050819174758 220.41666666666652L584.0050819174758 266.4166666666665L339.6050819174758 266.4166666666665" stroke="#323232" stroke-width="2" fill="none" marker-end="url(#SvgjsMarker1889)"></path></g><g id="SvgjsG1891" transform="translate(534.0050819174758,221.5)"><path id="SvgjsPath1892" d="M 0 0L 120 0L 120 40L 0 40Z" stroke="none" fill="none"></path><g id="SvgjsG1893"><text id="SvgjsText1894" font-family="微软雅黑" text-anchor="middle" font-size="13px" width="120px" fill="#323232" font-weight="400" align="middle" lineHeight="125%" anchor="middle" family="微软雅黑" size="13px" weight="400" font-style="" opacity="1" y="9.375" transform="rotate(0)"><tspan id="SvgjsTspan1895" dy="16" x="60"><tspan id="SvgjsTspan1896" style="text-decoration:;">N</tspan></tspan></text></g></g><g id="SvgjsG1897" transform="translate(530.0050819174758,321.4166666666665)"><path id="SvgjsPath1898" d="M 0 0L 120 0L 120 40L 0 40Z" stroke="none" fill="none"></path><g id="SvgjsG1899"><text id="SvgjsText1900" font-family="微软雅黑" text-anchor="middle" font-size="13px" width="120px" fill="#323232" font-weight="400" align="middle" lineHeight="125%" anchor="middle" family="微软雅黑" size="13px" weight="400" font-style="" opacity="1" y="9.375" transform="rotate(0)"><tspan id="SvgjsTspan1901" dy="16" x="60"><tspan id="SvgjsTspan1902" style="text-decoration:;">N</tspan></tspan></text></g></g><g id="SvgjsG1903" transform="translate(387.00508191747576,303.8333333333335)"><path id="SvgjsPath1904" d="M 0 0L 120 0L 120 40L 0 40Z" stroke="none" fill="none"></path><g id="SvgjsG1905"><text id="SvgjsText1906" font-family="微软雅黑" text-anchor="middle" font-size="13px" width="120px" fill="#323232" font-weight="400" align="middle" lineHeight="125%" anchor="middle" family="微软雅黑" size="13px" weight="400" font-style="" opacity="1" y="9.375" transform="rotate(0)"><tspan id="SvgjsTspan1907" dy="16" x="60"><tspan id="SvgjsTspan1908" style="text-decoration:;">1</tspan></tspan></text></g></g><g id="SvgjsG1909" transform="translate(387.00508191747576,228.41666666666697)"><path id="SvgjsPath1910" d="M 0 0L 120 0L 120 40L 0 40Z" stroke="none" fill="none"></path><g id="SvgjsG1911"><text id="SvgjsText1912" font-family="微软雅黑" text-anchor="middle" font-size="13px" width="120px" fill="#323232" font-weight="400" align="middle" lineHeight="125%" anchor="middle" family="微软雅黑" size="13px" weight="400" font-style="" opacity="1" y="9.375" transform="rotate(0)"><tspan id="SvgjsTspan1913" dy="16" x="60"><tspan id="SvgjsTspan1914" style="text-decoration:;">1</tspan></tspan></text></g></g><g id="SvgjsG1915"><path id="SvgjsPath1916" d="M288.50508191747576 250.41666666666652L288.50508191747576 200.91666666666652L288.50508191747576 200.91666666666652L288.50508191747576 154.01666666666654" stroke="#323232" stroke-width="2" fill="none" marker-end="url(#SvgjsMarker1917)"></path></g><g id="SvgjsG1919" transform="translate(238.50508191747576,80.41666666666652)"><path id="SvgjsPath1920" d="M 0 35C 0 -11.666666666666666 100 -11.666666666666666 100 35C 100 81.66666666666667 0 81.66666666666667 0 35Z" stroke="rgba(50,50,50,1)" stroke-width="2" fill-opacity="1" fill="#ffffff"></path><g id="SvgjsG1921"><text id="SvgjsText1922" font-family="微软雅黑" text-anchor="middle" font-size="13px" width="80px" fill="#323232" font-weight="400" align="middle" lineHeight="125%" anchor="middle" family="微软雅黑" size="13px" weight="400" font-style="" opacity="1" y="24.375" transform="rotate(0)"><tspan id="SvgjsTspan1923" dy="16" x="50"><tspan id="SvgjsTspan1924" style="text-decoration:underline;">编号</tspan></tspan></text></g></g><g id="SvgjsG1925"><path id="SvgjsPath1926" d="M237.50508191747576 286.4166666666665L181.75508191747576 286.4166666666665L181.75508191747576 181.625L128.6050819174758 181.625" stroke="#323232" stroke-width="2" fill="none" marker-end="url(#SvgjsMarker1927)"></path></g><g id="SvgjsG1929" transform="translate(25.005081917475763,150.41666666666652)"><path id="SvgjsPath1930" d="M 0 35C 0 -11.666666666666666 100 -11.666666666666666 100 35C 100 81.66666666666667 0 81.66666666666667 0 35Z" stroke="rgba(50,50,50,1)" stroke-width="2" fill-opacity="1" fill="#ffffff"></path><g id="SvgjsG1931"><text id="SvgjsText1932" font-family="微软雅黑" text-anchor="middle" font-size="13px" width="80px" fill="#323232" font-weight="400" align="middle" lineHeight="125%" anchor="middle" family="微软雅黑" size="13px" weight="400" font-style="" opacity="1" y="24.375" transform="rotate(0)"><tspan id="SvgjsTspan1933" dy="16" x="50"><tspan id="SvgjsTspan1934" style="text-decoration:underline;">题干</tspan></tspan></text></g></g><g id="SvgjsG1935"><path id="SvgjsPath1936" d="M237.50508191747576 286.4166666666665L181.75508191747576 286.4166666666665L181.75508191747576 286.4166666666665L128.6050819174758 286.4166666666665" stroke="#323232" stroke-width="2" fill="none" marker-end="url(#SvgjsMarker1937)"></path></g><g id="SvgjsG1939" transform="translate(25.005081917475763,251.41666666666652)"><path id="SvgjsPath1940" d="M 0 35C 0 -11.666666666666666 100 -11.666666666666666 100 35C 100 81.66666666666667 0 81.66666666666667 0 35Z" stroke="rgba(50,50,50,1)" stroke-width="2" fill-opacity="1" fill="#ffffff"></path><g id="SvgjsG1941"><text id="SvgjsText1942" font-family="微软雅黑" text-anchor="middle" font-size="13px" width="80px" fill="#323232" font-weight="400" align="middle" lineHeight="125%" anchor="middle" family="微软雅黑" size="13px" weight="400" font-style="" opacity="1" y="24.375" transform="rotate(0)"><tspan id="SvgjsTspan1943" dy="16" x="50"><tspan id="SvgjsTspan1944" style="text-decoration:underline;">解析</tspan></tspan></text></g></g><g id="SvgjsG1945"><path id="SvgjsPath1946" d="M237.50508191747576 286.4166666666665L181.75508191747576 286.4166666666665L181.75508191747576 362.625L128.6050819174758 362.625" stroke="#323232" stroke-width="2" fill="none" marker-end="url(#SvgjsMarker1947)"></path></g><g id="SvgjsG1949" transform="translate(25.005081917475763,329.4166666666665)"><path id="SvgjsPath1950" d="M 0 35C 0 -11.666666666666666 100 -11.666666666666666 100 35C 100 81.66666666666667 0 81.66666666666667 0 35Z" stroke="rgba(50,50,50,1)" stroke-width="2" fill-opacity="1" fill="#ffffff"></path><g id="SvgjsG1951"><text id="SvgjsText1952" font-family="微软雅黑" text-anchor="middle" font-size="13px" width="80px" fill="#323232" font-weight="400" align="middle" lineHeight="125%" anchor="middle" family="微软雅黑" size="13px" weight="400" font-style="" opacity="1" y="24.375" transform="rotate(0)"><tspan id="SvgjsTspan1953" dy="16" x="50"><tspan id="SvgjsTspan1954" style="text-decoration:underline;">分值</tspan></tspan></text></g></g><g id="SvgjsG1955" transform="translate(116.50508191747576,434.5833333333335)"><path id="SvgjsPath1956" d="M 0 35C 0 -11.666666666666666 100 -11.666666666666666 100 35C 100 81.66666666666667 0 81.66666666666667 0 35Z" stroke="rgba(50,50,50,1)" stroke-width="2" fill-opacity="1" fill="#ffffff"></path><g id="SvgjsG1957"><text id="SvgjsText1958" font-family="微软雅黑" text-anchor="middle" font-size="13px" width="80px" fill="#323232" font-weight="400" align="middle" lineHeight="125%" anchor="middle" family="微软雅黑" size="13px" weight="400" font-style="" opacity="1" y="24.375" transform="rotate(0)"><tspan id="SvgjsTspan1959" dy="16" x="50"><tspan id="SvgjsTspan1960" style="text-decoration:underline;">题目类型</tspan></tspan></text></g></g><g id="SvgjsG1961"><path id="SvgjsPath1962" d="M288.50508191747576 322.4166666666665L288.50508191747576 399.5L288.50508191747576 399.5L288.50508191747576 473.98333333333346" stroke="#323232" stroke-width="2" fill="none" marker-end="url(#SvgjsMarker1963)"></path></g><g id="SvgjsG1965" transform="translate(238.50508191747576,477.5833333333335)"><path id="SvgjsPath1966" d="M 0 35C 0 -11.666666666666666 100 -11.666666666666666 100 35C 100 81.66666666666667 0 81.66666666666667 0 35Z" stroke="rgba(50,50,50,1)" stroke-width="2" fill-opacity="1" fill="#ffffff"></path><g id="SvgjsG1967"><text id="SvgjsText1968" font-family="微软雅黑" text-anchor="middle" font-size="13px" width="80px" fill="#323232" font-weight="400" align="middle" lineHeight="125%" anchor="middle" family="微软雅黑" size="13px" weight="400" font-style="" opacity="1" y="24.375" transform="rotate(0)"><tspan id="SvgjsTspan1969" dy="16" x="50"><tspan id="SvgjsTspan1970" style="text-decoration:underline;">创建时间</tspan></tspan></text></g></g><g id="SvgjsG1971"><path id="SvgjsPath1972" d="M288.50508191747576 322.4166666666665L288.50508191747576 378L166.50508191747576 378L166.50508191747576 430.98333333333346" stroke="#323232" stroke-width="2" fill="none" marker-end="url(#SvgjsMarker1973)"></path></g></svg>